<svg width="624" height="365" viewBox="0 0 624 365" fill="none" xmlns="http://www.w3.org/2000/svg">
<g clip-path="url(#clip0_47_6750)">
<path fill-rule="evenodd" clip-rule="evenodd" d="M64.403 363.48H195.078V169.534H118.905C88.9343 169.534 64.403 194.099 64.403 224.11V363.48Z" fill="#8593A7"/>
<path fill-rule="evenodd" clip-rule="evenodd" d="M72.0713 362.2H202.747V166.975H126.573C96.6026 166.975 72.0713 191.539 72.0713 221.551V362.2Z" fill="#B2BCCA"/>
<path d="M104.415 116.647C105.359 118.647 107.302 118.982 109.023 118.149C113.853 115.923 108.3 110.536 114.63 107.591C117.625 106.202 120.123 106.98 121.343 109.644C123.62 114.48 115.574 119.873 118.294 125.763C118.47 126.205 118.734 126.605 119.071 126.94C119.409 127.274 119.811 127.536 120.254 127.708C120.696 127.88 121.169 127.958 121.644 127.939C122.118 127.92 122.583 127.802 123.01 127.595C126.28 126.093 124.732 123.812 125.12 121.537C125.622 118.501 131.838 112.557 128.844 106.072C125.568 99.0479 118.019 99.0479 111.635 102.014C105.586 104.851 102.035 111.741 104.312 116.604L104.415 116.647ZM122.622 136.711C122.995 137.513 123.598 138.186 124.353 138.645C125.109 139.104 125.984 139.329 126.867 139.29C127.75 139.252 128.601 138.951 129.314 138.428C130.027 137.904 130.568 137.181 130.87 136.349C131.173 135.518 131.221 134.615 131.011 133.755C130.801 132.896 130.34 132.118 129.688 131.52C129.036 130.922 128.222 130.532 127.348 130.398C126.475 130.264 125.581 130.392 124.78 130.767C123.711 131.273 122.885 132.182 122.482 133.295C122.078 134.408 122.131 135.636 122.627 136.711H122.622Z" fill="#FF9800"/>
<path d="M127.23 50.4159C127.289 53.658 129.728 55.2791 132.502 55.198C140.273 55.0845 136.112 44.58 146.322 44.3909C151.098 44.3369 154.039 46.8387 154.092 51.1724C154.2 59.0075 140.273 61.3959 140.44 70.9008C140.494 73.4566 142.215 76.2341 145.658 76.18C150.93 76.126 150.207 72.1814 152.096 69.3445C154.589 65.562 166.412 61.3419 166.245 50.9724C166.078 39.679 155.922 35.1238 145.712 35.2859C135.945 35.4534 127.122 42.5105 127.23 50.3456V50.4159ZM139.55 88.0408C139.573 89.3386 139.981 90.6002 140.721 91.6659C141.461 92.7315 142.5 93.5534 143.707 94.0274C144.914 94.5015 146.234 94.6064 147.5 94.3288C148.766 94.0513 149.922 93.4039 150.821 92.4684C151.719 91.533 152.321 90.3516 152.549 89.0738C152.776 87.796 152.621 86.4792 152.101 85.2901C151.581 84.101 150.721 83.0931 149.629 82.3938C148.536 81.6946 147.262 81.3355 145.966 81.362C144.234 81.4018 142.589 82.1247 141.387 83.3736C140.185 84.6224 139.525 86.296 139.55 88.03V88.0408Z" fill="#FF9800"/>
<path fill-rule="evenodd" clip-rule="evenodd" d="M166.191 200.17C166.191 200.17 143.602 162.886 197.381 140.99C251.16 119.095 289.506 145.767 297.94 183.614C297.94 183.614 320.302 187.169 328.515 191C328.515 191 315.419 137.597 317.421 126.93C317.421 126.93 318.861 123.596 321.468 123.429C324.074 123.261 324.797 109.201 324.797 109.201C324.797 109.201 348.94 112.589 359.333 103.868C359.333 103.868 366.769 114.135 370.433 114.675C370.433 114.675 372.101 114.675 372.986 116.896C373.871 119.117 402.066 212.371 402.789 229.83C403.512 247.289 402.622 270.843 377.648 273.232C352.674 275.62 327.145 276.344 314.161 275.069C314.161 275.069 321.322 347.866 318.214 362.758H137.607C137.607 362.758 96.4876 356.868 92.2785 320.691C88.0694 284.514 126.242 224.551 166.256 200.154L166.191 200.17Z" fill="#6DA6FF"/>
<path fill-rule="evenodd" clip-rule="evenodd" d="M297.94 183.614C297.94 183.614 306.099 184.889 314.312 186.78C315.311 223.178 285.95 232.516 285.95 232.516C304.324 212.452 297.94 183.614 297.94 183.614Z" fill="#4B81D0"/>
<path fill-rule="evenodd" clip-rule="evenodd" d="M146.322 215.224C152.466 209.601 159.118 204.56 166.191 200.165C166.191 200.165 182.563 230.009 215.75 238.065C187.889 242.907 169.466 225.124 146.322 215.224Z" fill="#4B81D0"/>
<path fill-rule="evenodd" clip-rule="evenodd" d="M204.984 185.056C210.866 193.502 239.391 235.18 245.607 259.69C245.607 259.69 257.258 256.448 265.309 260.079L274.688 304.594C274.963 306.869 273.851 308.479 272.686 310.927C271.579 313.261 269.448 316.763 267.581 318.097C260.425 323.096 254.927 326.1 250.313 329.099C250.48 341.322 250.2 353.215 249.034 362.833H280.78C280.78 316.32 293.823 220.623 260.247 185.834L204.914 185.056H204.984Z" fill="#F0F3F8"/>
<path fill-rule="evenodd" clip-rule="evenodd" d="M264.084 259.798C264.084 259.798 257.668 272.081 262.201 285.973C266.734 299.866 274.742 304.534 274.742 304.534L286.176 294.976L278.902 262.689C273.689 261.744 268.746 260.803 264.03 259.744L264.084 259.798Z" fill="#4B81D0"/>
<path fill-rule="evenodd" clip-rule="evenodd" d="M207.316 163.939L204.984 185.057L218.275 205.007C222.436 211.231 261.78 224.011 263.334 191.557L265.055 157.715L207.256 163.939H207.316Z" fill="#F5A78C"/>
<path fill-rule="evenodd" clip-rule="evenodd" d="M261.699 176.719C256.206 184.003 254.43 197.674 237.281 191.227C225.571 186.78 209.145 167.83 204.148 162.94L205.227 183.387C212.998 203.672 266.048 205.541 261.721 176.778L261.699 176.719Z" fill="#F0816C"/>
<path fill-rule="evenodd" clip-rule="evenodd" d="M209.48 174.276C205.869 168.716 201.385 161.848 195.714 153.435C175.181 135.652 161.253 87.0306 202.594 91.6398L222.851 143.098L209.42 174.276H209.48Z" fill="#001244"/>
<path fill-rule="evenodd" clip-rule="evenodd" d="M224.794 106.478C227.012 106.699 256.152 122.148 270.581 142.768C303.099 127.871 288.729 105.143 288.729 105.143L250.82 98.8103L224.794 106.478Z" fill="#001244"/>
<path fill-rule="evenodd" clip-rule="evenodd" d="M282.458 106.31L206.204 100.253C206.204 100.253 206.037 132.485 205.869 158.611C205.762 176.784 214.196 182.452 237.227 191.173C260.258 199.895 268.692 184.23 273.463 176.227C284.455 157.887 282.345 106.262 282.345 106.262L282.458 106.31Z" fill="#F5A78C"/>
<path fill-rule="evenodd" clip-rule="evenodd" d="M253.891 144.487C253.281 147.269 252.617 150.43 254.058 152.878C254.446 153.602 255.002 154.213 255.331 154.937C255.719 155.912 255.76 156.991 255.448 157.992C255.136 158.994 254.488 159.857 253.615 160.438C253.439 160.536 253.232 160.565 253.035 160.517C252.839 160.47 252.667 160.35 252.555 160.182C252.443 160.014 252.398 159.809 252.429 159.609C252.461 159.409 252.566 159.229 252.725 159.103C253.275 158.716 253.683 158.157 253.884 157.514C254.085 156.872 254.068 156.18 253.837 155.548C253.556 154.883 253.006 154.272 252.671 153.656C251.004 150.825 251.592 147.323 252.282 144.157C252.304 144.055 252.346 143.958 252.405 143.872C252.464 143.786 252.539 143.712 252.626 143.655C252.714 143.598 252.812 143.559 252.914 143.54C253.017 143.521 253.122 143.522 253.224 143.544C253.326 143.565 253.423 143.607 253.509 143.666C253.595 143.725 253.668 143.801 253.725 143.888C253.782 143.976 253.821 144.074 253.84 144.176C253.859 144.279 253.858 144.384 253.837 144.487H253.891Z" fill="#614644"/>
<path fill-rule="evenodd" clip-rule="evenodd" d="M276.128 124.764C274.431 123.34 272.568 122.126 270.581 121.149C268.304 120.068 265.805 119.425 263.566 119.927C263.366 119.975 263.177 120.061 263.01 120.182C262.843 120.303 262.702 120.455 262.594 120.63C262.486 120.806 262.414 121.001 262.381 121.204C262.348 121.408 262.356 121.615 262.403 121.816C262.451 122.016 262.537 122.206 262.658 122.373C262.778 122.54 262.93 122.681 263.105 122.789C263.28 122.897 263.475 122.97 263.678 123.003C263.881 123.036 264.089 123.028 264.289 122.98C265.843 122.651 267.619 123.207 269.173 123.985C270.915 124.853 272.553 125.915 274.056 127.152C274.213 127.287 274.395 127.389 274.591 127.454C274.787 127.518 274.994 127.544 275.2 127.528C275.406 127.513 275.607 127.457 275.791 127.363C275.975 127.27 276.14 127.141 276.274 126.984C276.409 126.828 276.511 126.646 276.576 126.449C276.64 126.253 276.665 126.046 276.65 125.839C276.634 125.633 276.578 125.432 276.485 125.247C276.392 125.063 276.264 124.898 276.107 124.764H276.128Z" fill="#614644"/>
<path fill-rule="evenodd" clip-rule="evenodd" d="M239.224 118.982C236.838 118.371 234.173 118.814 231.901 119.646C229.833 120.406 227.873 121.434 226.073 122.705C225.746 122.959 225.531 123.331 225.475 123.742C225.418 124.152 225.524 124.569 225.77 124.902C226.015 125.236 226.382 125.46 226.79 125.527C227.199 125.594 227.617 125.498 227.956 125.26C229.507 124.186 231.186 123.309 232.953 122.651C234.675 122.04 236.671 121.57 238.446 122.04C238.647 122.095 238.856 122.109 239.063 122.083C239.269 122.056 239.468 121.99 239.648 121.886C239.828 121.783 239.987 121.645 240.114 121.48C240.241 121.316 240.335 121.128 240.389 120.927C240.444 120.726 240.458 120.516 240.432 120.31C240.406 120.104 240.339 119.904 240.236 119.724C240.132 119.543 239.995 119.385 239.83 119.257C239.666 119.13 239.478 119.036 239.278 118.982H239.224Z" fill="#614644"/>
<path fill-rule="evenodd" clip-rule="evenodd" d="M237.394 142.709C238.614 143.044 240.055 141.601 240.556 139.466C241.058 137.332 240.503 135.3 239.224 134.911C237.945 134.522 236.558 136.019 236.061 138.153C235.565 140.288 236.115 142.32 237.394 142.709Z" fill="#001244"/>
<path fill-rule="evenodd" clip-rule="evenodd" d="M263.809 145.043C265.028 145.432 266.507 144.043 267.138 141.931C267.77 139.818 267.252 137.764 265.973 137.321C264.694 136.878 263.275 138.321 262.643 140.434C262.012 142.547 262.525 144.6 263.809 145.043Z" fill="#001244"/>
<path fill-rule="evenodd" clip-rule="evenodd" d="M182.73 129.486L190.825 147.318C192.659 148.599 198.208 137.515 197.96 133.738C202.401 135.737 219.074 121.867 217.687 104.36L185.553 100.75L182.725 129.422L182.73 129.486Z" fill="#001244"/>
<path fill-rule="evenodd" clip-rule="evenodd" d="M206.539 130.929C206.539 130.929 200.818 124.704 194.127 128.541C181.365 134.263 187.468 159.384 207.618 159.773" fill="#F5A78C"/>
<path fill-rule="evenodd" clip-rule="evenodd" d="M196.043 145.242C196.056 143.637 195.974 142.282 196.476 140.757C197.145 139.136 198.595 137.817 200.484 138.358C200.586 138.387 200.68 138.436 200.763 138.502C200.845 138.568 200.914 138.651 200.964 138.744C201.014 138.837 201.045 138.939 201.056 139.045C201.066 139.15 201.055 139.256 201.024 139.357C200.961 139.549 200.83 139.71 200.656 139.81C200.481 139.91 200.276 139.941 200.079 139.898C199.135 139.622 198.294 140.579 197.96 141.417C197.532 142.744 197.67 143.895 197.694 145.29C197.694 145.497 197.612 145.695 197.466 145.841C197.321 145.987 197.123 146.069 196.917 146.069C196.711 146.069 196.513 145.987 196.368 145.841C196.222 145.695 196.14 145.497 196.14 145.29L196.043 145.242Z" fill="#614644"/>
<path d="M228.345 79.0818C227.254 79.7295 226.018 80.0918 224.751 80.1355C223.467 80.2106 222.179 80.118 220.92 79.8599C220.38 79.7464 218.702 79.8059 216.603 80.8055C215.08 81.5439 213.722 82.5823 212.609 83.8585L212.221 84.307L211.832 84.7501C211.929 84.5765 212.061 84.4254 212.221 84.307L212.609 83.8585C213.733 82.5942 215.089 81.5578 216.603 80.8055C218.659 79.8059 220.38 79.7248 220.92 79.8599C222.179 80.118 223.467 80.2106 224.751 80.1355C226.014 80.0663 227.244 79.7056 228.345 79.0818V79.0818Z" fill="#1B203E"/>
<path fill-rule="evenodd" clip-rule="evenodd" d="M182.504 88.0842C183.583 90.197 186.723 91.6938 189.055 92.407C189.69 92.605 190.339 92.7531 190.997 92.8501C191.1 92.8633 191.199 92.897 191.289 92.9494C191.378 93.0017 191.456 93.0716 191.518 93.1548C191.58 93.238 191.625 93.3328 191.649 93.4337C191.674 93.5345 191.678 93.6393 191.661 93.7417C191.649 93.8447 191.617 93.9443 191.565 94.0343C191.514 94.1243 191.444 94.2028 191.362 94.265C191.279 94.3272 191.184 94.3718 191.083 94.3961C190.983 94.4205 190.878 94.4239 190.776 94.4063C190.021 94.312 189.276 94.1455 188.553 93.9092V93.9092C185.898 93.1041 182.342 91.2507 181.041 88.8083C180.986 88.7168 180.951 88.6146 180.938 88.5085C180.925 88.4024 180.934 88.2947 180.966 88.1926C180.998 88.0905 181.05 87.9963 181.121 87.9161C181.192 87.8359 181.279 87.7717 181.376 87.7275C181.56 87.6356 181.773 87.6191 181.97 87.6816C182.166 87.7442 182.331 87.8808 182.428 88.0626L182.504 88.0842Z" fill="#001244"/>
<path fill-rule="evenodd" clip-rule="evenodd" d="M185.839 74.2456C186.527 74.6676 187.114 75.238 187.555 75.9153C188.095 76.7635 188.472 77.7056 188.666 78.6927V78.6927C188.876 80.306 188.894 81.9384 188.72 83.5559C188.612 85.6093 188.499 87.7761 189.109 89.7214C189.517 91.2147 190.416 92.5264 191.661 93.4444V93.4444C192.002 93.6596 192.364 93.8406 192.74 93.9848C192.91 94.0718 193.041 94.2181 193.11 94.3959C193.179 94.5737 193.181 94.7706 193.114 94.9493C193.047 95.128 192.918 95.2759 192.749 95.3651C192.581 95.4543 192.386 95.4784 192.201 95.433C191.712 95.2471 191.246 95.0041 190.814 94.7089C189.265 93.6024 188.148 91.9926 187.652 90.1537V90.1537C186.983 87.9923 187.042 85.6525 187.204 83.4263C187.38 81.9298 187.362 80.4168 187.15 78.9251C186.999 78.1622 186.718 77.431 186.319 76.7637V76.7637C186.011 76.2831 185.593 75.883 185.099 75.5965C185.009 75.5468 184.93 75.4796 184.866 75.3987C184.802 75.3178 184.755 75.225 184.727 75.1256C184.7 75.0262 184.693 74.9224 184.706 74.8201C184.719 74.7179 184.753 74.6193 184.804 74.5303C184.856 74.4412 184.925 74.3634 185.008 74.3015C185.09 74.2396 185.184 74.1948 185.284 74.1698C185.384 74.1448 185.488 74.1401 185.589 74.1559C185.691 74.1717 185.789 74.2077 185.876 74.2618L185.839 74.2456Z" fill="#001244"/>
<path fill-rule="evenodd" clip-rule="evenodd" d="M258.148 114.205C297.06 120.759 311.312 82.6913 305.873 66.4644C297.33 68.3016 286.565 68.6906 268.968 62.3523C230.622 46.1416 182.175 50.2375 190.107 104.197C220.466 104.738 219.301 107.645 258.202 114.205H258.148Z" fill="#001244"/>
<path d="M161.361 278.695C161.238 278.737 161.108 278.753 160.979 278.743C160.849 278.733 160.723 278.696 160.608 278.635C160.494 278.574 160.393 278.49 160.312 278.388C160.231 278.287 160.171 278.17 160.137 278.044C160.103 277.919 160.095 277.787 160.114 277.659C160.132 277.53 160.177 277.406 160.245 277.296C160.314 277.185 160.404 277.089 160.51 277.015C160.617 276.941 160.738 276.889 160.865 276.863C161.086 276.804 247.048 253.244 264.365 258.858C264.594 258.935 264.784 259.099 264.895 259.314C265.005 259.529 265.028 259.778 264.958 260.01C264.888 260.241 264.73 260.436 264.518 260.553C264.307 260.67 264.058 260.7 263.825 260.636C246.994 255.211 161.642 278.581 161.361 278.641V278.695Z" fill="#0057B2"/>
<path d="M327.463 190.168C327.441 189.925 327.516 189.683 327.672 189.496C327.828 189.308 328.051 189.191 328.294 189.168C328.537 189.146 328.778 189.221 328.965 189.377C329.153 189.533 329.27 189.758 329.292 190.001C329.292 190.06 331.014 210.285 346.56 215.068C346.789 215.144 346.98 215.308 347.09 215.523C347.201 215.738 347.224 215.988 347.153 216.219C347.083 216.451 346.926 216.646 346.714 216.762C346.503 216.879 346.254 216.909 346.021 216.845C329.238 211.674 327.463 190.222 327.463 190.168Z" fill="#0057B2"/>
<path d="M191.661 269.914C191.737 270.138 191.725 270.382 191.628 270.597C191.531 270.812 191.357 270.983 191.139 271.075C190.922 271.166 190.678 271.172 190.457 271.091C190.235 271.01 190.052 270.848 189.945 270.638C189.945 270.584 185.002 257.913 161.642 264.192C161.521 264.225 161.396 264.234 161.272 264.218C161.148 264.202 161.028 264.162 160.92 264.1C160.811 264.038 160.716 263.956 160.639 263.857C160.563 263.758 160.507 263.645 160.474 263.524C160.441 263.404 160.432 263.278 160.447 263.154C160.463 263.03 160.503 262.91 160.565 262.801C160.627 262.693 160.709 262.597 160.808 262.521C160.907 262.444 161.02 262.387 161.14 262.354C186.114 255.632 191.661 269.86 191.661 269.914Z" fill="#0057B2"/>
<path d="M224.848 240.74C224.723 240.525 224.688 240.269 224.751 240.028C224.814 239.788 224.971 239.582 225.185 239.457C225.4 239.331 225.656 239.296 225.896 239.36C226.136 239.423 226.342 239.579 226.467 239.794C230.091 246.54 232.975 253.658 235.069 261.025C235.134 261.269 235.101 261.528 234.975 261.747C234.85 261.966 234.643 262.126 234.399 262.192C234.156 262.258 233.897 262.224 233.678 262.099C233.459 261.973 233.3 261.766 233.234 261.522C231.213 254.299 228.384 247.327 224.799 240.74H224.848Z" fill="#0057B2"/>
<path d="M284.109 235.407C284.102 235.283 284.119 235.158 284.16 235.041C284.2 234.923 284.264 234.815 284.346 234.722C284.428 234.629 284.528 234.553 284.64 234.498C284.752 234.444 284.873 234.412 284.997 234.405C285.121 234.397 285.245 234.414 285.363 234.455C285.48 234.495 285.589 234.559 285.682 234.641C285.775 234.724 285.85 234.824 285.905 234.936C285.959 235.048 285.991 235.169 285.998 235.293C286.106 237.514 286.219 244.128 286.273 250.245C286.327 254.746 286.273 258.891 286.165 260.912C286.151 261.162 286.038 261.397 285.851 261.564C285.664 261.732 285.418 261.818 285.167 261.803C284.917 261.789 284.682 261.676 284.515 261.488C284.348 261.301 284.262 261.054 284.277 260.804C284.385 258.799 284.385 254.633 284.385 250.245C284.331 244.188 284.223 237.574 284.109 235.347V235.407Z" fill="#0057B2"/>
<path fill-rule="evenodd" clip-rule="evenodd" d="M288.427 91.2507C288.427 91.2507 283.489 94.6387 279.55 96.0328C275.61 97.4269 263.512 96.5732 274.056 88.7488C284.601 80.9245 306.374 72.6895 321.344 72.6895C336.313 72.6895 355.14 75.3048 359.301 103.922L345.222 123.094L330.652 118.982L324.797 109.315C324.797 109.315 323.243 101.809 323.243 100.129C323.243 100.129 317.917 103.96 311.647 105.019C311.647 105.019 315.365 109.963 310.314 112.076C305.873 113.962 290.671 105.797 287.11 100.626C285.896 98.9183 286.268 92.9744 288.427 91.2507Z" fill="#F5A78C"/>
<path d="M288.502 91.8071C288.421 91.9024 288.306 91.9616 288.181 91.9718C288.057 91.9819 287.934 91.9421 287.838 91.8611C287.743 91.7802 287.684 91.6646 287.674 91.54C287.664 91.4154 287.704 91.2918 287.784 91.1965C287.784 91.1965 292.943 85.1391 298.885 82.6372C298.942 82.6115 299.005 82.5982 299.068 82.5984C299.131 82.5985 299.194 82.6121 299.251 82.6381C299.309 82.6641 299.36 82.7021 299.402 82.7494C299.444 82.7968 299.475 82.8524 299.494 82.9128C299.52 82.9713 299.533 83.0346 299.533 83.0986C299.532 83.1625 299.518 83.2256 299.492 83.2837C299.465 83.3419 299.427 83.3938 299.379 83.436C299.331 83.4782 299.275 83.5099 299.214 83.5288C293.499 85.9172 288.502 91.8071 288.502 91.8071Z" fill="#614644"/>
<path d="M291.389 104.257C291.402 104.318 291.403 104.382 291.39 104.443C291.377 104.505 291.351 104.563 291.315 104.614C291.278 104.665 291.231 104.707 291.177 104.739C291.123 104.771 291.063 104.79 291.001 104.797C290.94 104.809 290.877 104.808 290.816 104.794C290.755 104.781 290.698 104.755 290.647 104.719C290.597 104.682 290.554 104.636 290.522 104.583C290.49 104.529 290.469 104.47 290.461 104.408C290.299 103.576 291.184 100.577 294.017 96.8001C296.26 93.9111 298.893 91.3487 301.842 89.1865C301.891 89.1477 301.949 89.1196 302.01 89.1039C302.071 89.0883 302.135 89.0854 302.197 89.0956C302.259 89.1057 302.319 89.1286 302.372 89.1629C302.425 89.1971 302.47 89.2419 302.505 89.2946C302.544 89.3449 302.572 89.4027 302.588 89.4643C302.604 89.526 302.607 89.5902 302.597 89.653C302.586 89.7159 302.564 89.7759 302.529 89.8295C302.495 89.8831 302.45 89.9291 302.398 89.9646C299.525 92.0868 296.961 94.5983 294.778 97.4269C292.112 100.982 291.281 103.652 291.389 104.316V104.257Z" fill="#614644"/>
<path d="M297.552 108.234C297.567 108.298 297.568 108.364 297.557 108.428C297.546 108.493 297.521 108.554 297.485 108.609C297.449 108.663 297.403 108.71 297.348 108.746C297.294 108.782 297.232 108.806 297.168 108.818C297.104 108.829 297.038 108.827 296.974 108.812C296.91 108.797 296.851 108.769 296.798 108.73C296.746 108.692 296.702 108.642 296.669 108.586C296.636 108.529 296.615 108.466 296.607 108.402C296.44 107.569 297.384 104.846 300.05 101.68C302.125 99.2172 304.557 97.0806 307.265 95.3411C307.368 95.2822 307.489 95.2641 307.605 95.2903C307.721 95.3165 307.823 95.3852 307.89 95.4829C307.958 95.5805 307.987 95.7 307.971 95.8178C307.955 95.9356 307.896 96.0431 307.804 96.1193C305.185 97.8404 302.817 99.9171 300.768 102.29C298.329 105.257 297.438 107.591 297.552 108.234Z" fill="#614644"/>
<path d="M311.533 104.532C311.651 104.517 311.771 104.55 311.865 104.623C311.959 104.696 312.02 104.803 312.035 104.922C312.05 105.04 312.018 105.159 311.945 105.253C311.872 105.348 311.765 105.409 311.647 105.424C311.647 105.424 308.538 105.921 306.596 104.922C306.486 104.87 306.4 104.777 306.359 104.662C306.317 104.548 306.323 104.421 306.374 104.311C306.426 104.201 306.519 104.115 306.634 104.074C306.748 104.032 306.874 104.038 306.984 104.089C308.652 104.922 311.533 104.478 311.533 104.478V104.532Z" fill="#614644"/>
<path d="M323.41 100.534C323.292 100.571 323.164 100.562 323.052 100.511C322.939 100.459 322.85 100.367 322.801 100.253C322.763 100.135 322.77 100.006 322.822 99.893C322.874 99.78 322.967 99.6906 323.081 99.6424C325.788 98.5052 328.254 96.8641 330.35 94.8062C330.442 94.7253 330.56 94.6807 330.682 94.6807C330.804 94.6807 330.922 94.7253 331.014 94.8062C331.095 94.8989 331.14 95.018 331.14 95.1413C331.14 95.2645 331.095 95.3836 331.014 95.4763C328.833 97.6283 326.249 99.327 323.41 100.475V100.534Z" fill="#614644"/>
<path fill-rule="evenodd" clip-rule="evenodd" d="M324.743 109.255C324.743 109.255 324.02 123.305 321.414 123.483C321.163 123.479 320.914 123.536 320.691 123.65C320.691 123.65 347.888 136.43 370.363 114.756C366.699 114.216 359.263 103.949 359.263 103.949C348.864 112.649 324.743 109.255 324.743 109.255Z" fill="#4B81D0"/>
<path fill-rule="evenodd" clip-rule="evenodd" d="M277.569 262.468C277.569 262.468 272.524 285.865 286.203 294.976C289.25 293.873 292.15 292.399 294.837 290.588C293.396 293.03 293.218 301.2 294.837 306.647C294.837 306.647 291.896 304.367 289.981 305.426C288.065 306.485 287.925 309.592 291.092 312.651C294.26 315.709 298.469 324.987 312.235 325.263C313.303 324.989 314.299 324.484 315.152 323.784C316.005 323.084 316.695 322.205 317.172 321.21C317.172 321.21 318.063 331.768 318.84 333.157C319.617 334.546 321.171 336.88 324.776 336.156C328.38 335.432 328.715 333.487 328.326 329.931C327.938 326.376 330.717 290.809 314.399 272.859C298.08 254.908 277.704 262.468 277.704 262.468H277.569Z" fill="#F5A78C"/>
<path d="M295.388 318.432C295.327 318.403 295.274 318.361 295.231 318.31C295.187 318.258 295.155 318.199 295.136 318.134C295.117 318.07 295.111 318.002 295.12 317.935C295.128 317.868 295.15 317.804 295.185 317.746C295.219 317.689 295.265 317.639 295.32 317.6C295.374 317.561 295.437 317.534 295.502 317.52C295.568 317.506 295.636 317.506 295.702 317.52C295.767 317.534 295.829 317.561 295.884 317.6C295.943 317.6 295.997 317.654 296.105 317.654C296.721 317.714 297.724 317.379 298.884 316.655C300.298 315.691 301.473 314.418 302.322 312.932C303.294 311.152 303.863 309.18 303.989 307.155C303.987 307.089 303.999 307.024 304.023 306.962C304.048 306.901 304.085 306.845 304.132 306.799C304.179 306.753 304.236 306.717 304.297 306.694C304.359 306.671 304.425 306.661 304.491 306.665C304.557 306.669 304.621 306.686 304.68 306.716C304.739 306.746 304.791 306.788 304.832 306.839C304.874 306.891 304.904 306.95 304.922 307.014C304.939 307.077 304.943 307.144 304.934 307.209C304.776 309.366 304.171 311.465 303.158 313.375C302.261 315.006 300.986 316.398 299.44 317.433C298.473 318.152 297.31 318.559 296.105 318.6C295.89 318.606 295.678 318.548 295.496 318.432H295.388Z" fill="#614644"/>
<path d="M301.545 323.209C301.442 323.15 301.367 323.052 301.336 322.937C301.305 322.822 301.321 322.699 301.38 322.596C301.44 322.493 301.538 322.417 301.652 322.386C301.767 322.356 301.89 322.372 301.993 322.431H302.047C302.586 322.431 303.876 321.891 305.284 320.761C307.072 319.324 308.562 317.551 309.672 315.542C310.979 313.227 311.719 310.634 311.83 307.977C311.847 307.859 311.908 307.752 312 307.678C312.092 307.603 312.209 307.565 312.327 307.572C312.445 307.578 312.557 307.629 312.64 307.714C312.722 307.799 312.77 307.912 312.774 308.031C312.647 310.829 311.848 313.556 310.443 315.979C309.259 318.082 307.697 319.947 305.835 321.48C304.216 322.761 302.727 323.371 302.009 323.371C301.853 323.366 301.7 323.328 301.561 323.258L301.545 323.209Z" fill="#614644"/>
<path d="M317.566 321.264C317.564 321.326 317.549 321.387 317.521 321.443C317.494 321.499 317.456 321.549 317.408 321.589C317.361 321.629 317.305 321.659 317.246 321.677C317.186 321.695 317.123 321.7 317.062 321.692C317 321.684 316.941 321.663 316.887 321.631C316.834 321.599 316.788 321.556 316.752 321.505C316.717 321.454 316.692 321.396 316.68 321.335C316.667 321.274 316.668 321.211 316.681 321.151C316.956 319.097 317.124 316.093 317.458 311.149L317.512 310.316C317.53 310.199 317.59 310.092 317.682 310.017C317.774 309.942 317.891 309.905 318.009 309.911C318.127 309.918 318.239 309.969 318.322 310.054C318.405 310.139 318.453 310.252 318.457 310.37L318.403 311.203C318.068 316.152 317.901 319.151 317.626 321.264H317.566Z" fill="#614644"/>
<path d="M158.701 363.72C158.574 363.75 158.442 363.753 158.313 363.73C158.185 363.708 158.062 363.659 157.953 363.587C157.844 363.515 157.75 363.421 157.679 363.312C157.607 363.203 157.558 363.08 157.535 362.951C157.512 362.822 157.516 362.69 157.546 362.563C157.576 362.436 157.632 362.316 157.709 362.211C157.787 362.105 157.886 362.017 157.999 361.952C158.111 361.886 158.237 361.844 158.366 361.828C158.474 361.828 191.386 355.939 229.289 338.436L232.397 336.988C246.428 330.601 272.912 318.616 273.743 304.48C273.751 304.356 273.783 304.235 273.837 304.123C273.891 304.011 273.967 303.911 274.06 303.828C274.153 303.746 274.261 303.682 274.379 303.642C274.496 303.601 274.62 303.584 274.744 303.592C274.868 303.599 274.99 303.631 275.101 303.685C275.213 303.74 275.313 303.816 275.396 303.909C275.478 304.002 275.541 304.11 275.582 304.228C275.622 304.345 275.64 304.47 275.632 304.594C274.688 319.816 247.604 332.152 233.174 338.712L230.066 340.101C191.942 357.716 158.755 363.666 158.642 363.666L158.701 363.72Z" fill="#0057B2"/>
<path fill-rule="evenodd" clip-rule="evenodd" d="M255.207 172.888H255.094C252.822 171.72 246.773 172.05 244.274 172.347C244.061 172.368 243.847 172.304 243.68 172.169C243.514 172.033 243.407 171.837 243.384 171.623C243.363 171.41 243.427 171.197 243.563 171.03C243.698 170.864 243.894 170.759 244.107 170.737C246.714 170.456 252.434 170.013 255.315 171.277H255.374C255.589 171.3 255.786 171.406 255.922 171.574C256.058 171.742 256.122 171.957 256.1 172.172C256.078 172.387 255.972 172.584 255.804 172.72C255.637 172.856 255.422 172.921 255.207 172.898V172.888Z" fill="#001244"/>
<path opacity="0.1" d="M350.344 235.774C350.545 234.856 351.358 234.201 352.298 234.201H499.014C500.291 234.201 501.241 235.381 500.968 236.628L483.949 314.535C483.749 315.453 482.936 316.108 481.995 316.108H335.279C334.002 316.108 333.053 314.928 333.325 313.681L350.344 235.774Z" fill="#1C52A3"/>
<path opacity="0.1" d="M333.766 205.056C333.968 204.139 334.78 203.486 335.719 203.486H450.444C451.722 203.486 452.672 204.669 452.397 205.917L439.181 265.906C438.979 266.823 438.166 267.476 437.228 267.476H322.503C321.225 267.476 320.275 266.294 320.55 265.046L333.766 205.056Z" fill="#1C52A3"/>
<path fill-rule="evenodd" clip-rule="evenodd" d="M291.281 347.104H349.717L369.197 258.356C369.861 255.243 372.975 252.687 376.078 252.687H525.64C529.806 252.687 532.412 256.075 531.522 260.187L509.672 359.883C509.486 360.671 509.048 361.377 508.425 361.893C507.801 362.409 507.027 362.707 506.219 362.742H306.32C302.337 362.723 298.523 361.131 295.706 358.31C292.89 355.49 291.3 351.67 291.281 347.682V347.141V347.104Z" fill="#B2BCCA"/>
<path d="M349.717 347.104H291.281V347.142V347.682C291.3 351.67 292.89 355.49 295.706 358.31C298.523 361.131 302.337 362.723 306.32 362.742H346.215L349.717 347.104Z" fill="#8593A7"/>
<path fill-rule="evenodd" clip-rule="evenodd" d="M347.579 357.002H294.573C294.926 357.447 295.304 357.874 295.708 358.281C298.568 361.169 302.443 362.8 306.489 362.819H346.287L347.579 357.002Z" fill="#546071"/>
<path fill-rule="evenodd" clip-rule="evenodd" d="M445.234 289.232C448.522 289.227 451.737 290.197 454.474 292.022C457.21 293.847 459.344 296.444 460.606 299.484C461.868 302.524 462.201 305.87 461.563 309.1C460.924 312.329 459.343 315.297 457.02 317.626C454.697 319.956 451.736 321.542 448.512 322.186C445.288 322.83 441.945 322.501 438.908 321.241C435.87 319.982 433.274 317.848 431.448 315.111C429.622 312.373 428.648 309.154 428.649 305.862C428.647 303.68 429.075 301.518 429.907 299.501C430.74 297.484 431.961 295.651 433.501 294.107C435.041 292.562 436.87 291.337 438.883 290.501C440.897 289.664 443.055 289.233 445.234 289.232Z" fill="#A4ADBB"/>
<path d="M609.773 360.888C610.274 360.888 610.754 361.087 611.108 361.442C611.462 361.797 611.661 362.278 611.661 362.779C611.661 363.281 611.462 363.762 611.108 364.117C610.754 364.471 610.274 364.671 609.773 364.671H6.47291C5.972 364.671 5.49161 364.471 5.13741 364.117C4.78321 363.762 4.58423 363.281 4.58423 362.779C4.58423 362.278 4.78321 361.797 5.13741 361.442C5.49161 361.087 5.972 360.888 6.47291 360.888H609.773Z" fill="#001244"/>
<rect x="314.902" y="350.662" width="7.66837" height="2.5596" rx="1" fill="#616E80"/>
<rect x="326.405" y="350.662" width="7.66837" height="2.5596" rx="1" fill="#616E80"/>
</g>
</svg>
